HIERARCHY
ROOT Hips
{
	OFFSET 0.00 0.00 0.00
	CHANNELS 6 Xposition Yposition Zposition Xrotation Yrotation Zrotation
	JOINT RightUpLeg
	{
		OFFSET -3.34548 0.00000 0.00000
		CHANNELS 3 Xrotation Yrotation Zrotation
		JOINT RightLeg
		{
			OFFSET 0.00000 -19.11473 0.00000
			CHANNELS 3 Xrotation Yrotation Zrotation
			JOINT RightFoot
			{
				OFFSET 0.00000 -16.04560 0.00000
				CHANNELS 3 Xrotation Yrotation Zrotation
				JOINT RightToeBase
				{
					OFFSET 0.00000 -1.43467 5.35428
					CHANNELS 3 Xrotation Yrotation Zrotation
					End Site
					{
						OFFSET 0.00000 0.00000 2.95275
					}
				}
			}
		}
	}
	JOINT LeftUpLeg
	{
		OFFSET 3.34548 0.00000 0.00000
		CHANNELS 3 Xrotation Yrotation Zrotation
		JOINT LeftLeg
		{
			OFFSET 0.00000 -19.11473 0.00000
			CHANNELS 3 Xrotation Yrotation Zrotation
			JOINT LeftFoot
			{
				OFFSET 0.00000 -16.04560 0.00000
				CHANNELS 3 Xrotation Yrotation Zrotation
				JOINT LeftToeBase
				{
					OFFSET 0.00000 -1.43467 5.35428
					CHANNELS 3 Xrotation Yrotation Zrotation
					End Site
					{
						OFFSET 0.00000 0.00000 2.95275
					}
				}
			}
		}
	}
	JOINT Spine
	{
		OFFSET 0.00000 7.53995 0.00000
		CHANNELS 3 Xrotation Yrotation Zrotation
		JOINT RightShoulder
		{
			OFFSET 0.00000 9.73893 0.00000
			CHANNELS 3 Xrotation Yrotation Zrotation
			JOINT RightArm
			{
				OFFSET -7.08401 0.00000 0.00000
				CHANNELS 3 Xrotation Yrotation Zrotation
				JOINT RightForeArm
				{
					OFFSET -10.25932 0.00000 0.00000
					CHANNELS 3 Yrotation Zrotation Xrotation
					JOINT RightHand
					{
						OFFSET -9.89698 0.00000 0.00000
						CHANNELS 3 Xrotation Yrotation Zrotation
						End Site
						{
							OFFSET -3.93700 0.00000 0.00000
						}
						JOINT RightHandThumb1
						{
							OFFSET 0.00000 0.00000 0.00000
							CHANNELS 3 Xrotation Zrotation Yrotation
							End Site
							{
								OFFSET 0.00000 0.00000 3.93700
							}
						}
					}
				}
			}
		}
		JOINT LeftShoulder
		{
			OFFSET 0.00000 9.73893 0.00000
			CHANNELS 3 Xrotation Yrotation Zrotation
			JOINT LeftArm
			{
				OFFSET 7.08401 0.00000 0.00000
				CHANNELS 3 Xrotation Yrotation Zrotation
				JOINT LeftForeArm
				{
					OFFSET 10.25932 0.00000 0.00000
					CHANNELS 3 Yrotation Zrotation Xrotation
					JOINT LeftHand
					{
						OFFSET 9.89698 0.00000 0.00000
						CHANNELS 3 Xrotation Yrotation Zrotation
						End Site
						{
							OFFSET 3.93700 0.00000 0.00000
						}
						JOINT LeftHandThumb1
						{
							OFFSET 0.00000 0.00000 0.00000
							CHANNELS 3 Xrotation Zrotation Yrotation
							End Site
							{
								OFFSET 0.00000 0.00000 3.93700
							}
						}
					}
				}
			}
		}
		JOINT Head
		{
			OFFSET 0.00000 15.09381 0.00000
			CHANNELS 3 Xrotation Yrotation Zrotation
			End Site
			{
				OFFSET 0.00000 4.52755 0.00000
			}
		}
	}
}
MOTION
Frames: 9
Frame Time: 0.008333
 -0.6344 36.9597 4.2855 7.9521 -5.0410 0.2111 -8.7805 -4.7691 -3.2511 11.2101 0.0000 0.0000 -11.9169 -12.9742 15.0086 8.2805 0.0000 -0.0000 -5.3546 15.0612 5.3522 8.5379 0.0000 -0.0000 -13.3976 18.0884 -18.9307 13.2596 -0.0000 0.0000 -12.9908 0.2502 -2.1792 -8.2805 -3.2084 -25.6482 -82.0481 -4.9017 16.9081 106.6880 0.0000 79.7326 0.8910 1.5636 -29.6817 32.8623 0.0000 -24.3270 -0.3845 0.7267 0.7848 16.8648 -25.2909 -61.9298 -29.9060 -0.0000 23.2527 2.4419 7.7372 -17.5762 33.1476 -0.0000 26.2537 -7.1024 -38.4565 -10.6082
 -0.6335 36.9600 4.2818 7.9480 -4.9562 0.2050 -8.7765 -4.7996 -3.2532 11.2303 0.0000 0.0000 -11.9693 -13.0238 14.8967 8.4023 0.0000 0.0000 -5.3727 15.0293 5.3554 8.5432 0.0000 -0.0000 -13.3917 18.0472 -18.9365 13.2819 0.0000 -0.0000 -12.9867 0.2765 -2.1987 -8.2901 -3.2228 -25.6734 -81.9091 -4.8248 16.7965 106.7176 0.0000 79.8108 0.9156 1.6081 -29.6614 32.8623 0.0000 -24.3270 -0.3492 0.7768 0.7574 16.8664 -25.2665 -61.9212 -29.8126 -0.0000 23.3832 2.4196 7.6734 -17.5606 33.1476 -0.0000 26.2537 -7.1042 -38.4525 -10.5998
 -0.6328 36.9600 4.2781 7.9427 -4.8666 0.2025 -8.7670 -4.8276 -3.2603 11.2313 0.0000 -0.0000 -11.9759 -13.0835 14.8940 8.4001 0.0000 -0.0000 -5.3866 14.9846 5.3491 8.5510 -0.0000 0.0000 -13.3512 17.9067 -18.7630 13.0055 0.0000 -0.0000 -12.9837 0.2878 -2.2218 -8.2806 -3.2365 -25.7021 -81.8032 -4.7645 16.7002 106.7544 0.0000 79.9545 0.8900 1.5648 -29.6347 32.8623 0.0000 -24.3270 -0.3212 0.8174 0.7486 16.8861 -25.2881 -61.9278 -29.6914 -0.0000 23.3413 2.4157 7.6536 -17.5762 33.1476 -0.0000 26.2537 -7.1255 -38.4298 -10.6329
 -0.6308 36.9606 4.2748 7.9408 -4.7977 0.2054 -8.7645 -4.8433 -3.2733 11.2371 -0.0000 0.0000 -11.9853 -13.1234 14.9047 8.4338 0.0000 -0.0000 -5.3729 14.9265 5.3358 8.5066 -0.0000 0.0000 -13.3198 17.8783 -18.7729 12.9830 0.0000 0.0000 -12.9891 0.3176 -2.2481 -8.2722 -3.2338 -25.7210 -81.7098 -4.7083 16.5938 106.7989 0.0000 80.1204 0.8619 1.5160 -29.6246 32.8623 0.0000 -24.3270 -0.2750 0.8511 0.7378 16.8961 -25.2758 -61.9349 -29.5754 -0.0000 23.3422 2.4122 7.6598 -17.5389 33.1476 -0.0000 26.2537 -7.1135 -38.3733 -10.6208
 -0.6289 36.9598 4.2834 7.8388 -4.8975 0.2505 -8.6678 -4.7046 -3.3150 11.2571 -0.0000 0.0000 -12.0206 -13.1522 14.9053 8.4406 0.0000 -0.0000 -5.2062 15.1221 5.2869 8.4179 0.0000 -0.0000 -13.3020 17.8876 -18.9713 13.2593 -0.0000 0.0000 -12.8889 0.5355 -2.3227 -8.3331 -3.1999 -25.6973 -81.5564 -4.6533 16.4693 106.8567 0.0000 80.2326 0.8443 1.4877 -29.5806 32.8623 0.0000 -24.3270 -0.2589 0.8787 0.7614 16.9285 -25.2700 -61.9430 -29.4473 -0.0000 23.3903 2.4382 7.7212 -17.5847 33.1476 -0.0000 26.2537 -7.0575 -38.3367 -10.5245
 -0.6291 36.9595 4.2835 7.7612 -4.8393 0.2459 -8.5798 -4.6955 -3.3198 11.2547 -0.0000 0.0000 -12.0273 -13.2101 14.8948 8.3891 -0.0000 0.0000 -5.1534 15.1480 5.2855 8.4431 0.0000 -0.0000 -13.3060 17.8290 -18.9602 13.2452 0.0000 -0.0000 -12.7958 0.6082 -2.3563 -8.2678 -3.2730 -25.7013 -81.5762 -4.6129 16.3932 106.9045 0.0000 80.3045 0.8675 1.5263 -29.6162 32.8623 0.0000 -24.3270 -0.2586 0.8755 0.7486 16.9684 -25.2554 -61.9340 -29.3413 -0.0000 23.4278 2.4616 7.7951 -17.5868 33.1476 -0.0000 26.2537 -7.0150 -38.3061 -10.4448
 -0.6288 36.9592 4.2782 7.7432 -4.7147 0.2342 -8.5597 -4.7708 -3.3233 11.2622 -0.0000 0.0000 -12.0463 -13.2505 14.8938 8.4472 -0.0000 0.0000 -5.1694 15.0537 5.2901 8.4650 -0.0000 0.0000 -13.3112 17.7955 -18.9704 13.2322 -0.0000 0.0000 -12.7661 0.6139 -2.3837 -8.2138 -3.3175 -25.7332 -81.5812 -4.6179 16.2891 106.9781 0.0000 80.3765 0.8583 1.5116 -29.5923 32.8623 0.0000 -24.3270 -0.2574 0.8694 0.7369 17.0155 -25.2655 -61.9368 -29.1820 -0.0000 23.4194 2.4384 7.7333 -17.5603 33.1476 -0.0000 26.2537 -7.0505 -38.3381 -10.4788
 -0.6291 36.9593 4.2721 7.7302 -4.5849 0.2227 -8.5442 -4.8426 -3.3269 11.2688 -0.0000 0.0000 -12.0565 -13.3072 14.8761 8.4414 -0.0000 0.0000 -5.1900 14.9389 5.2938 8.4858 -0.0000 0.0000 -13.3083 17.7673 -18.9422 13.2461 -0.0000 -0.0000 -12.7412 0.6058 -2.4148 -8.2688 -3.3059 -25.7353 -81.4843 -4.5798 16.1885 107.0422 0.0000 80.4455 0.8504 1.4998 -29.5588 32.8623 0.0000 -24.3270 -0.2556 0.8646 0.7281 17.0577 -25.2602 -61.9424 -29.0211 -0.0000 23.3860 2.4253 7.6554 -17.6378 33.1476 -0.0000 26.2537 -7.0185 -38.3356 -10.4134
 -0.6295 36.9594 4.2660 7.7224 -4.4853 0.2145 -8.5390 -4.8803 -3.3300 11.2836 0.0000 -0.0000 -12.0645 -13.3702 14.8981 8.4720 0.0000 -0.0000 -5.2124 14.8770 5.2984 8.4999 0.0000 0.0000 -13.3075 17.7372 -18.9456 13.2697 -0.0000 0.0000 -12.7244 0.6159 -2.4430 -8.2121 -3.3406 -25.7503 -81.5223 -4.5833 16.1058 107.1005 0.0000 80.4383 0.8903 1.5663 -29.6200 32.8623 0.0000 -24.3270 -0.2560 0.8870 0.7187 17.0989 -25.2530 -61.9431 -28.8684 -0.0000 23.4596 2.4365 7.6937 -17.6318 33.1476 -0.0000 26.2537 -7.0147 -38.3331 -10.3933
